<svg width="1255" height="210" viewBox="0 0 1255 210" fill="none" xmlns="http://www.w3.org/2000/svg">
<g clip-path="url(#clip0_333_1850)">
<path d="M36.9518 104.763L71.8728 140.137L36.9518 175.058C-19.2859 108.391 -2.68634 75.7376 29.6955 43.5378L71.8728 0L106.794 35.828L36.9518 104.763Z" fill="#00C850"/>
<path d="M142.167 70.2951L177.541 35.3742C178.297 35.9789 182.893 41.542 195.229 58.9572C222.713 105.67 193.868 158.127 177.541 173.244L141.533 209.525L72.1445 140.137L107.065 103.856L142.167 139.23L177.541 105.67L142.167 70.2951Z" fill="#4C59FF"/>
<path d="M141.532 209.525L177.36 105.67L141.986 139.23L107.065 103.856L72.3247 140.137L141.532 209.525Z" fill="#343FCD"/>
<g filter="url(#filter0_d_333_1850)">
<path d="M303.925 156H275.83V56.7515H239.616L242.72 39.4009H340.536L337.432 56.7515H303.925V156ZM359.797 156V39.4009H435.885L432.781 56.7515H387.892V87.7119H427.05L424.185 103.869H387.892V138.649H436.681L433.577 156H359.797ZM551.688 145.255C549.141 147.378 546.249 149.208 543.013 150.747C539.776 152.286 536.38 153.559 532.825 154.567C529.323 155.576 525.742 156.318 522.081 156.796C518.419 157.326 514.917 157.592 511.575 157.592C503.51 157.592 496.055 156.265 489.21 153.612C482.365 150.906 476.423 147.086 471.382 142.151C466.341 137.217 462.388 131.274 459.523 124.323C456.711 117.372 455.305 109.599 455.305 101.003C455.305 94.2648 456.154 88.0303 457.852 82.2998C459.603 76.5693 461.99 71.3695 465.015 66.7002C468.092 62.0309 471.727 57.8923 475.918 54.2842C480.11 50.6761 484.673 47.6517 489.608 45.2109C494.542 42.7702 499.742 40.9396 505.208 39.7192C510.726 38.4458 516.324 37.8091 522.001 37.8091C523.805 37.8091 525.901 37.8887 528.289 38.0479C530.729 38.154 533.276 38.3662 535.929 38.6846C538.635 39.0029 541.394 39.4274 544.207 39.958C547.019 40.4886 549.778 41.1253 552.484 41.8682L548.345 60.6514L546.753 61.2881C541.872 58.9535 537.229 57.3617 532.825 56.5127C528.421 55.6107 524.521 55.1597 521.125 55.1597C515.607 55.1597 510.593 56.1678 506.083 58.1841C501.573 60.1473 497.7 62.9329 494.463 66.541C491.226 70.1491 488.706 74.4735 486.902 79.5142C485.151 84.5549 484.275 90.1527 484.275 96.3076C484.275 102.569 485.177 108.326 486.981 113.579C488.839 118.778 491.518 123.289 495.02 127.109C498.522 130.876 502.793 133.821 507.834 135.943C512.928 138.013 518.711 139.047 525.185 139.047C530.172 139.047 534.815 138.464 539.113 137.296C543.464 136.129 547.655 134.537 551.688 132.521V145.255ZM575.326 156V39.4009H603.421V87.0752H651.732V39.4009H679.828V156H651.732V104.426H603.421V156H575.326ZM775.893 91.2139C778.917 92.0098 781.941 93.1771 784.966 94.7158C787.99 96.2546 790.696 98.1912 793.084 100.526C795.472 102.807 797.408 105.514 798.894 108.644C800.38 111.722 801.123 115.223 801.123 119.15C801.123 123.819 799.929 128.356 797.541 132.76C795.206 137.164 791.784 141.09 787.274 144.539C782.817 147.988 777.299 150.774 770.719 152.896C764.193 154.965 756.711 156 748.275 156H708.878V39.4009H752.493C759.656 39.4009 765.944 40.0641 771.356 41.3906C776.821 42.6641 781.358 44.4681 784.966 46.8027C788.627 49.0843 791.386 51.7904 793.243 54.9209C795.1 57.9984 796.029 61.3146 796.029 64.8696C796.029 67.7349 795.472 70.4144 794.357 72.9082C793.296 75.349 791.837 77.6305 789.98 79.7529C788.176 81.8753 786.054 83.8916 783.613 85.8018C781.172 87.6589 778.599 89.4629 775.893 91.2139ZM736.973 138.649H750.503C754.058 138.649 757.189 138.145 759.895 137.137C762.601 136.129 764.856 134.776 766.66 133.078C768.464 131.327 769.817 129.364 770.719 127.188C771.621 124.96 772.072 122.652 772.072 120.264C772.072 117.346 771.489 114.852 770.321 112.783C769.207 110.713 767.642 109.015 765.625 107.689C763.662 106.362 761.301 105.407 758.542 104.824C755.783 104.187 752.812 103.869 749.628 103.869H736.973V138.649ZM760.054 87.7119C762.442 86.0671 764.432 83.8651 766.023 81.106C767.668 78.2938 768.491 75.1367 768.491 71.6348C768.491 69.3532 768.04 67.3104 767.138 65.5063C766.289 63.6493 765.042 62.084 763.397 60.8105C761.805 59.484 759.842 58.4759 757.507 57.7861C755.226 57.0964 752.679 56.7515 749.867 56.7515H736.973V87.7119H760.054ZM823.965 156V39.4009H900.053L896.949 56.7515H852.06V87.7119H891.218L888.353 103.869H852.06V138.649H900.849L897.745 156H823.965ZM925.044 156V39.4009H1001.13L998.028 56.7515H953.139V87.7119H992.297L989.432 103.869H953.139V138.649H1001.93L998.824 156H925.044ZM1054.22 156H1026.12V39.4009H1067.99C1075.68 39.4009 1082.5 40.2764 1088.44 42.0273C1094.38 43.7253 1099.37 46.1925 1103.4 49.4292C1107.49 52.6659 1110.57 56.5658 1112.64 61.1289C1114.71 65.6921 1115.74 70.8389 1115.74 76.5693C1115.74 82.7773 1114.6 88.4017 1112.32 93.4424C1110.09 98.4831 1107.04 102.781 1103.17 106.336C1099.29 109.838 1094.76 112.544 1089.56 114.454C1084.41 116.364 1078.92 117.319 1073.08 117.319C1072.23 117.319 1071.41 117.293 1070.61 117.24C1069.82 117.187 1068.89 117.081 1067.83 116.921L1069.18 101.003C1069.61 101.11 1070.14 101.189 1070.77 101.242C1071.41 101.242 1071.99 101.242 1072.52 101.242C1075.18 101.242 1077.49 100.685 1079.45 99.5708C1081.46 98.4035 1083.11 96.8382 1084.38 94.875C1085.71 92.9118 1086.69 90.6302 1087.33 88.0303C1088.02 85.4303 1088.36 82.6447 1088.36 79.6733C1088.36 75.5347 1087.83 72.0327 1086.77 69.1675C1085.76 66.2492 1084.28 63.888 1082.31 62.084C1080.4 60.2269 1078.07 58.8739 1075.31 58.0249C1072.6 57.1759 1069.55 56.7515 1066.16 56.7515H1054.22V156ZM1166.44 140.241C1168.93 140.241 1171.32 139.976 1173.6 139.445C1175.88 138.862 1177.9 137.986 1179.65 136.819C1181.4 135.652 1182.81 134.166 1183.87 132.362C1184.93 130.558 1185.46 128.409 1185.46 125.915C1185.46 122.944 1184.72 120.423 1183.23 118.354C1181.75 116.285 1179.76 114.481 1177.26 112.942C1174.82 111.35 1172.04 109.917 1168.91 108.644C1165.78 107.318 1162.57 105.965 1159.28 104.585C1156.04 103.152 1152.86 101.587 1149.73 99.8892C1146.65 98.1382 1143.86 96.0423 1141.37 93.6016C1138.93 91.1608 1136.97 88.269 1135.48 84.9263C1133.99 81.5304 1133.25 77.4979 1133.25 72.8286C1133.25 67.4696 1134.29 62.6411 1136.35 58.3433C1138.42 53.9924 1141.37 50.3047 1145.19 47.2803C1149.01 44.2559 1153.6 41.9212 1158.96 40.2764C1164.37 38.6315 1170.39 37.8091 1177.03 37.8091C1178.83 37.8091 1180.93 37.8887 1183.31 38.0479C1185.75 38.154 1188.35 38.3662 1191.11 38.6846C1193.87 39.0029 1196.71 39.4274 1199.63 39.958C1202.55 40.4886 1205.41 41.1519 1208.22 41.9478L1204.17 60.6514L1202.73 61.2881C1200.24 60.1738 1197.75 59.2453 1195.25 58.5024C1192.81 57.7065 1190.42 57.0698 1188.09 56.5923C1185.81 56.0617 1183.66 55.6903 1181.64 55.478C1179.63 55.2658 1177.85 55.1597 1176.31 55.1597C1171.22 55.1597 1167.13 56.2474 1164.05 58.4229C1161.03 60.5983 1159.52 63.7819 1159.52 67.9736C1159.52 70.945 1160.26 73.4653 1161.74 75.5347C1163.23 77.5509 1165.19 79.355 1167.63 80.9468C1170.13 82.5386 1172.94 83.9977 1176.07 85.3242C1179.2 86.5977 1182.38 87.9507 1185.62 89.3833C1188.91 90.8159 1192.12 92.3812 1195.25 94.0791C1198.38 95.777 1201.17 97.8464 1203.61 100.287C1206.1 102.728 1208.09 105.62 1209.58 108.962C1211.06 112.252 1211.81 116.205 1211.81 120.821C1211.81 126.233 1210.74 131.194 1208.62 135.705C1206.5 140.162 1203.45 144.035 1199.47 147.325C1195.54 150.561 1190.77 153.082 1185.14 154.886C1179.57 156.69 1173.28 157.592 1166.28 157.592C1163.68 157.592 1160.87 157.433 1157.84 157.114C1154.82 156.849 1151.69 156.424 1148.45 155.841C1145.27 155.257 1142.03 154.488 1138.74 153.533C1135.45 152.578 1132.27 151.41 1129.19 150.031L1133.33 131.248L1134.92 130.452C1137.95 131.884 1140.84 133.211 1143.6 134.431C1146.36 135.652 1149.01 136.686 1151.56 137.535C1154.16 138.384 1156.68 139.047 1159.12 139.525C1161.56 140.002 1164 140.241 1166.44 140.241Z" fill="white"/>
</g>
<path d="M1239.07 54.8326H1236.51V60.5523H1233.29V44.9279H1239.09C1240.94 44.9279 1242.36 45.3395 1243.36 46.1622C1244.36 46.9848 1244.86 48.1474 1244.86 49.6495C1244.86 50.7158 1244.63 51.606 1244.16 52.3217C1243.7 53.0299 1243.01 53.5948 1242.07 54.017L1245.45 60.402V60.5523H1242L1239.07 54.8326ZM1236.51 52.2249H1239.1C1239.91 52.2249 1240.53 52.0211 1240.98 51.6136C1241.42 51.1984 1241.64 50.6295 1241.64 49.9072C1241.64 49.1703 1241.43 48.5908 1241.01 48.1686C1240.59 47.7464 1239.96 47.5356 1239.09 47.5356H1236.51V52.2249Z" fill="white" stroke="#132E63" stroke-width="0.715641"/>
<path d="M1238.37 67.0352C1246.45 67.0352 1253 60.4838 1253 52.4022C1253 44.3206 1246.45 37.7692 1238.37 37.7692C1230.3 37.7692 1223.75 44.3206 1223.75 52.4022C1223.75 60.4838 1230.3 67.0352 1238.37 67.0352Z" stroke="white" stroke-width="3.95285"/>
</g>
<defs>
<filter id="filter0_d_333_1850" x="235.988" y="37.8091" width="979.451" height="127.039" filterUnits="userSpaceOnUse" color-interpolation-filters="sRGB">
<feFlood flood-opacity="0" result="BackgroundImageFix"/>
<feColorMatrix in="SourceAlpha" type="matrix" values="0 0 0 0 0 0 0 0 0 0 0 0 0 0 0 0 0 0 127 0" result="hardAlpha"/>
<feOffset dy="3.62815"/>
<feGaussianBlur stdDeviation="1.81408"/>
<feComposite in2="hardAlpha" operator="out"/>
<feColorMatrix type="matrix" values="0 0 0 0 0 0 0 0 0 0 0 0 0 0 0 0 0 0 0.25 0"/>
<feBlend mode="normal" in2="BackgroundImageFix" result="effect1_dropShadow_333_1850"/>
<feBlend mode="normal" in="SourceGraphic" in2="effect1_dropShadow_333_1850" result="shape"/>
</filter>
<clipPath id="clip0_333_1850">
<rect width="1255" height="210" fill="white"/>
</clipPath>
</defs>
</svg>
