<svg width="142" height="142" viewBox="0 0 142 142" fill="none" xmlns="http://www.w3.org/2000/svg">
<circle cx="71" cy="71" r="71" fill="#FFFCFC"/>
<path d="M46.7883 71.2377L59.3758 83.9885L46.7883 96.576C26.517 72.5454 32.5004 60.7753 44.1727 49.1686L59.3758 33.4751L71.9634 46.3896L46.7883 71.2377Z" fill="#00C850"/>
<path d="M84.7133 58.8136L97.4641 46.2261C97.7367 46.444 99.3933 48.4493 103.84 54.7267C113.747 71.5647 103.349 90.4732 97.4641 95.9222L84.4848 109L59.4731 83.9886L72.0606 70.9108L84.7133 83.6616L97.4641 71.5647L84.7133 58.8136Z" fill="#4C59FF"/>
<path d="M84.4848 109L97.3993 71.5648L84.6485 83.6617L72.061 70.9109L59.5386 83.9886L84.4848 109Z" fill="#343FCD"/>
</svg>
